<?xml version="1.0" encoding="UTF-8" standalone="no"?>
<svg viewBox="0 0 300 250" xmlns="http://www.w3.org/2000/svg" xmlns:xlink="http://www.w3.org/1999/xlink">
  <path id="name" d="M266.075 34.319C255.094 26.8197 240.949 21.4191 224.034 19.3898C174.824 13.4864 90.048 18.3996 71.5943 78.607C65.2287 99.3759 74.2234 125.39 76.1859 146.152C78.7144 172.902 77.4689 220.137 45.8816 231.276C42.9781 232.3 39.6975 232.892 36.6985 232.202C14.2302 227.027 29.0507 199.897 40.3718 192.878C56.4481 182.91 75.3876 179.897 90.8788 169.283C93.9426 167.184 100.501 165.966 99.6028 162.344C98.7317 158.833 83.9471 167.822 92.7155 175.298C100.003 181.511 113.711 169.031 110.163 161.881C108.797 159.128 102.382 188.833 120.265 180.387C131.582 175.042 161.827 136.186 155.161 121.632C151.646 113.959 141.417 125.777 140.008 128.109C134.622 137.026 122.343 173.642 140.468 176.686C145.419 177.517 161.13 164.378 161.13 158.643C161.13 156.885 160.775 163.95 162.507 163.732C167.712 163.076 175.823 157.56 175.823 151.703C175.823 149.385 175.363 156.325 175.363 158.643C175.363 160.035 173.22 174.372 174.445 174.372C179.15 174.372 180.625 154.016 186.383 154.016C190.683 154.016 186.044 164.613 189.597 166.045C192.021 167.022 197.654 159.578 199.239 158.18C200.38 157.175 202.454 153.415 202.454 154.942C202.454 158.188 198.139 164.936 201.076 167.896C205.886 172.742 217.131 153.918 213.932 152.629C210.159 151.108 203.952 172.847 214.851 173.91C233.095 175.689 253.579 150.076 260.766 135.974C261.294 134.938 265.314 125.045 263.062 122.095C256.92 114.05 242.625 133.167 241.023 135.974C224.787 164.424 246.361 198.912 275 167.433" stroke-dasharray="1122.43" stroke-dashoffset="1122.43" fill="none" stroke="#ffe3f9" stroke-width="3.2" stroke-linecap="round" stroke-linejoin="round">
    <animate id="nameAnimDraw" attributeName="stroke-dashoffset" values="1122.43;0" keyTimes="0;1" dur="3.75s" begin="1s" fill="freeze" calcMode="spline" keySplines="0 .47 .0 .47" />
  </path>
  <path id="dot" d="M218.524 118.394C215.486 118.394 211.67 122.405 212.555 125.333C213.392 128.105 217.759 127.801 220.361 129.034" stroke-dasharray="19.2" stroke-dashoffset="19.2" fill="none" stroke="#ffe3f9" stroke-width="3.2" stroke-linecap="round" stroke-linejoin="round">
    <set id="dotSetHide" attributeName="stroke-dashoffset" value="19.2" begin="nameAnimDraw.begin" />
    <animate id="dotAnimDraw" attributeName="stroke-dashoffset" values="19.2;0" keyTimes="0;1" dur="0.2s" begin="nameAnimDraw.begin 0.2s" fill="freeze" calcMode="spline" keySplines="0 .47 .0 .47" />
  </path>
</svg>
